<?xml version="1.0" encoding="UTF-8"?>
<svg version="1.1" xmlns="http://www.w3.org/2000/svg" width="100" height="98">
<path d="M0 0 C3.06444283 1.72866006 3.20960434 3.18247127 4.4375 6.375 C6.40830157 7.11776031 6.40830157 7.11776031 8.4375 7.375 C10.4375 9.375 10.4375 9.375 10.8125 12.8125 C10.4375 16.375 10.4375 16.375 8.8125 18.3125 C6.4375 19.375 6.4375 19.375 3.4375 19.3125 C0.41905758 19.12874651 0.41905758 19.12874651 -1.875 20.75 C-4.4369544 24.73526241 -5.04791173 28.67024015 -4.5625 33.375 C-3.5256033 35.18497789 -3.5256033 35.18497789 -2.0625 36.625 C0.4375 39.375 0.4375 39.375 0.328125 42.23046875 C-0.66882234 45.75039247 -1.96450583 47.65256707 -4.3125 50.4375 C-5.02921875 51.29214844 -5.7459375 52.14679688 -6.484375 53.02734375 C-8.75656979 55.5942405 -11.06231921 58.03108051 -13.5625 60.375 C-10.5925 60.705 -7.6225 61.035 -4.5625 61.375 C-3.52385834 64.49092499 -3.47213072 65.4012656 -4.5625 68.375 C-7.38511944 69.78630972 -9.75153011 69.5100646 -12.90820312 69.52026367 C-13.55877182 69.52362228 -14.20934052 69.5269809 -14.87962341 69.53044128 C-17.03435159 69.53995576 -19.18900212 69.5418945 -21.34375 69.54296875 C-22.83825717 69.54618051 -24.33276401 69.54954452 -25.82727051 69.55305481 C-28.96118906 69.55904698 -32.09508003 69.56089457 -35.22900391 69.56030273 C-39.25098052 69.560201 -43.27278105 69.57386462 -47.29471588 69.59107494 C-50.38129494 69.60217456 -53.46783112 69.60422259 -56.5544281 69.60369301 C-58.03763945 69.60487577 -59.52085181 69.60931405 -61.00404358 69.61702538 C-63.07508822 69.62678631 -65.14574645 69.6239632 -67.21679688 69.61791992 C-68.98645813 69.62005745 -68.98645813 69.62005745 -70.79187012 69.62223816 C-73.5625 69.375 -73.5625 69.375 -75.5625 67.375 C-75.6875 64.25 -75.6875 64.25 -75.5625 61.375 C-72.0975 60.88 -72.0975 60.88 -68.5625 60.375 C-69.366875 59.59125 -70.17125 58.8075 -71 58 C-74.39384686 54.52337639 -75.1534439 52.25712665 -75.09765625 47.33984375 C-73.44365247 38.17642133 -67.70271872 27.98146909 -60.73828125 21.85546875 C-50.75280344 15.0610413 -38.89924168 15.2744699 -27.25 15.4375 C-18.54677946 15.53448062 -18.54677946 15.53448062 -10.84765625 12.01953125 C-9.24885818 10.25506115 -9.24885818 10.25506115 -9.0625 6.875 C-8.5625 3.375 -8.5625 3.375 -7.1875 1.5 C-4.59774417 -0.29290788 -3.07079195 -0.74897365 0 0 Z M-2.5625 4.375 C-3.2225 5.365 -3.8825 6.355 -4.5625 7.375 C-3.9025 8.365 -3.2425 9.355 -2.5625 10.375 C-7.48116124 16.43524164 -10.99602825 18.97226865 -18.75 19.8984375 C-25.51316994 21.04441907 -32.53271928 24.78530416 -36.5625 30.375 C-37.79184971 34.17129376 -37.96331433 37.3375982 -36.5 41.125 C-33.34316931 44.79099693 -30.39432944 47.06969509 -25.5625 47.875 C-20.74104812 47.07142469 -17.76956915 44.69746773 -14.51953125 41.13671875 C-12.35559347 38.08301813 -11.40216855 35.46380112 -10.375 31.875 C-10.05144531 30.7715625 -9.72789063 29.668125 -9.39453125 28.53125 C-8.53151049 25.47806064 -8.53151049 25.47806064 -8.1484375 22.7109375 C-7.09529167 18.51239612 -4.06470419 15.7738675 -0.5625 13.375 C2.875 13.4375 2.875 13.4375 5.4375 14.375 C5.4375 13.385 5.4375 12.395 5.4375 11.375 C4.65375 11.148125 3.87 10.92125 3.0625 10.6875 C0.4375 9.375 0.4375 9.375 -0.875 6.75 C-1.101875 5.96625 -1.32875 5.1825 -1.5625 4.375 C-1.8925 4.375 -2.2225 4.375 -2.5625 4.375 Z M-60.5625 28.375 C-62.9401174 31.54689838 -64.80107172 34.82956102 -66.5625 38.375 C-66.9028125 39.01953125 -67.243125 39.6640625 -67.59375 40.328125 C-69.59092601 44.43343124 -70.2311459 47.8616402 -69.5625 52.375 C-65.57523836 58.03433911 -59.89835251 59.58035087 -53.3671875 60.77734375 C-41.36750092 62.34719522 -26.11511353 62.88197349 -15.5625 56.375 C-13.63660795 54.42163445 -11.94685325 52.56439544 -10.25 50.4375 C-9.80849609 49.91220703 -9.36699219 49.38691406 -8.91210938 48.84570312 C-6.69352511 46.13108011 -5.0132983 43.90483573 -4.5625 40.375 C-5.8825 39.715 -7.2025 39.055 -8.5625 38.375 C-8.85382813 38.90609375 -9.14515625 39.4371875 -9.4453125 39.984375 C-12.56254674 45.35621263 -15.39732714 49.19048058 -21.6640625 50.97265625 C-26.74617107 51.87206722 -30.37361882 51.27246949 -34.8359375 48.66796875 C-38.78582379 45.71002223 -40.61695254 42.19307853 -41.5 37.4375 C-41.8307817 33.1042597 -40.77079292 30.15046854 -38.5625 26.375 C-36.66316075 24.50940536 -34.6950053 22.98622622 -32.5625 21.375 C-32.5625 21.045 -32.5625 20.715 -32.5625 20.375 C-42.81549841 20.22128188 -52.92251514 20.85848964 -60.5625 28.375 Z " fill="#282828" transform="translate(84.5625,12.625)"/>
<path d="M0 0 C3.06444283 1.72866006 3.20960434 3.18247127 4.4375 6.375 C6.40830157 7.11776031 6.40830157 7.11776031 8.4375 7.375 C10.4375 9.375 10.4375 9.375 10.8125 12.8125 C10.4375 16.375 10.4375 16.375 8.8125 18.3125 C6.4375 19.375 6.4375 19.375 3.4375 19.3125 C0.41905758 19.12874651 0.41905758 19.12874651 -1.875 20.75 C-4.43757023 24.73622035 -5.04644121 28.66960237 -4.5625 33.375 C-3.15778253 35.73452543 -1.4753107 37.36654877 0.4375 39.375 C0.25 41.75 0.25 41.75 -0.5625 43.375 C-1.8825 43.375 -3.2025 43.375 -4.5625 43.375 C-4.995625 42.4159375 -4.995625 42.4159375 -5.4375 41.4375 C-6.39073451 39.22293921 -6.39073451 39.22293921 -8.5625 38.375 C-8.8409375 39.674375 -8.8409375 39.674375 -9.125 41 C-11.34759229 46.21826016 -15.16811711 48.92576825 -19.9375 51.8125 C-25.32949961 52.96792849 -29.99183357 52.17515082 -34.875 49.6875 C-39.60790298 45.61500208 -42.17346582 41.61076606 -42.66015625 35.390625 C-42.41699912 30.37186187 -40.17244593 27.04168508 -36.875 23.4375 C-36.111875 22.756875 -35.34875 22.07625 -34.5625 21.375 C-36.60440981 21.51738837 -38.64602045 21.66407028 -40.6875 21.8125 C-42.39292969 21.93431641 -42.39292969 21.93431641 -44.1328125 22.05859375 C-47.3165478 22.35230965 -50.41760907 22.80624313 -53.5625 23.375 C-53.5625 21.70833333 -53.5625 20.04166667 -53.5625 18.375 C-49.28590183 16.78581095 -45.48601096 16.03232137 -40.9375 15.75 C-39.71417969 15.67394531 -38.49085937 15.59789063 -37.23046875 15.51953125 C-33.89241119 15.3879997 -30.58928444 15.38191652 -27.25 15.4375 C-18.54677946 15.53448062 -18.54677946 15.53448062 -10.84765625 12.01953125 C-9.24885818 10.25506115 -9.24885818 10.25506115 -9.0625 6.875 C-8.5625 3.375 -8.5625 3.375 -7.1875 1.5 C-4.59774417 -0.29290788 -3.07079195 -0.74897365 0 0 Z M-2.5625 4.375 C-3.2225 5.365 -3.8825 6.355 -4.5625 7.375 C-3.9025 8.365 -3.2425 9.355 -2.5625 10.375 C-7.48116124 16.43524164 -10.99602825 18.97226865 -18.75 19.8984375 C-25.51316994 21.04441907 -32.53271928 24.78530416 -36.5625 30.375 C-37.79184971 34.17129376 -37.96331433 37.3375982 -36.5 41.125 C-33.34316931 44.79099693 -30.39432944 47.06969509 -25.5625 47.875 C-20.74104812 47.07142469 -17.76956915 44.69746773 -14.51953125 41.13671875 C-12.35559347 38.08301813 -11.40216855 35.46380112 -10.375 31.875 C-10.05144531 30.7715625 -9.72789063 29.668125 -9.39453125 28.53125 C-8.53151049 25.47806064 -8.53151049 25.47806064 -8.1484375 22.7109375 C-7.09529167 18.51239612 -4.06470419 15.7738675 -0.5625 13.375 C2.875 13.4375 2.875 13.4375 5.4375 14.375 C5.4375 13.385 5.4375 12.395 5.4375 11.375 C4.65375 11.148125 3.87 10.92125 3.0625 10.6875 C0.4375 9.375 0.4375 9.375 -0.875 6.75 C-1.101875 5.96625 -1.32875 5.1825 -1.5625 4.375 C-1.8925 4.375 -2.2225 4.375 -2.5625 4.375 Z " fill="#2D2D2D" transform="translate(84.5625,12.625)"/>
<path d="M0 0 C0 3 0 3 -1.5 4.6875 C-1.995 5.120625 -2.49 5.55375 -3 6 C-2.505 6.33 -2.01 6.66 -1.5 7 C0.5200727 9.69343026 -0.07004607 11.70324483 -0.23046875 14.94140625 C0.05404805 17.48276817 0.8409544 18.39639063 2.5625 20.25 C3.366875 21.1575 4.17125 22.065 5 23 C4.8125 25.375 4.8125 25.375 4 27 C2.68 27 1.36 27 0 27 C-0.28875 26.360625 -0.5775 25.72125 -0.875 25.0625 C-1.82823451 22.84793921 -1.82823451 22.84793921 -4 22 C-4.185625 22.86625 -4.37125 23.7325 -4.5625 24.625 C-6.78509229 29.84326016 -10.60561711 32.55076825 -15.375 35.4375 C-20.83213495 36.60688606 -25.48670245 35.81269683 -30.375 33.1875 C-34.6460177 29.62831858 -34.6460177 29.62831858 -36 27 C-35.6875 24.25 -35.6875 24.25 -35 22 C-34.01 22 -33.02 22 -32 22 C-31.54625 22.763125 -31.0925 23.52625 -30.625 24.3125 C-28.72302075 27.45808107 -27.34465627 28.52212863 -24 30 C-20.16400883 30.57131783 -18.35972632 30.17986316 -14.875 28.4375 C-8.30454306 22.8668952 -5.95718265 14.61932228 -4.546875 6.33984375 C-3.83304547 3.28567311 -2.32500622 2.02500542 0 0 Z " fill="#323232" transform="translate(80,29)"/>
<path d="M0 0 C1.32 0.33 2.64 0.66 4 1 C2.55746343 4.36591866 0.66735273 6.51047079 -2 9 C-2 8.34 -2 7.68 -2 7 C-2.99 6.67 -3.98 6.34 -5 6 C-3.35 4.02 -1.7 2.04 0 0 Z " fill="#1B1B1B" transform="translate(81,29)"/>
</svg>
