<?xml version="1.0" encoding="UTF-8"?>
<svg version="1.1" xmlns="http://www.w3.org/2000/svg" width="100" height="98">
<path d="M0 0 C0.47566406 0.50273437 0.95132813 1.00546875 1.44140625 1.5234375 C3.46326304 3.43888077 4.63204123 3.35792611 7.375 3.4375 C11.80358069 3.78035786 13.6237818 5.06802103 17 8 C18.155 8.309375 19.31 8.61875 20.5 8.9375 C25.87302484 10.56859683 28.46057744 13.91566114 31.3125 18.5625 C33 22 33 22 33 26 C35.31 26.33 37.62 26.66 40 27 C40.495 29.97 40.495 29.97 41 33 C40.0409375 33.2475 40.0409375 33.2475 39.0625 33.5 C38.381875 33.995 37.70125 34.49 37 35 C36.73056839 36.85234234 36.4771709 38.70896784 36.3203125 40.57421875 C35.63015647 45.80088819 34.2598111 51.71724665 30.4609375 55.5546875 C26.46984825 58.0513963 21.69707198 59.41732019 17 59 C14.14298561 57.94998616 11.58413246 56.6013374 9 55 C9 54.34 9 53.68 9 53 C3.41499433 53.19898708 3.41499433 53.19898708 -1 56 C-1.020625 56.78375 -1.04125 57.5675 -1.0625 58.375 C-2.21974336 61.61528141 -3.03403883 61.85531235 -6.0625 63.3125 C-12.05750798 65.64969804 -16.46540968 65.67589075 -22.75 64 C-26.60829572 61.62566418 -27.21094821 59.87527892 -28.90234375 55.85546875 C-30.71336892 52.79412727 -33.78909268 52.22598279 -37 51 C-40 47.03225806 -40 47.03225806 -40 44 C-41.98 44 -43.96 44 -46 44 C-54 28 -54 28 -55.01611328 25.84667969 C-55.90825089 23.90007568 -55.90825089 23.90007568 -57.6875 22.5625 C-58.120625 22.046875 -58.55375 21.53125 -59 21 C-58.6875 18.3125 -58.6875 18.3125 -58 16 C-54.12315913 14.80712589 -51.08378077 14 -47 14 C-46.773125 13.13375 -46.54625 12.2675 -46.3125 11.375 C-44.639267 7.07240086 -42.27675521 3.13837761 -38 1 C-34.75 0.625 -34.75 0.625 -31 1 C-28.96302383 2.62126675 -26.96185416 4.28859531 -25 6 C-21.84526251 6.80414877 -19.24486476 7 -16 7 C-14.73223566 5.50468822 -13.46765156 4.00594691 -12.24609375 2.47265625 C-8.65026244 -1.77696258 -5.16773305 -1.22146418 0 0 Z M-9.625 5.1875 C-11.83638989 7.80625118 -12.98288042 9.76371044 -14 13 C-9.545 14.98 -9.545 14.98 -5 17 C-3.02 13.37 -1.04 9.74 1 6 C-3.44646075 2.66515443 -5.18703745 1.48919788 -9.625 5.1875 Z M-39.75 7 C-42.74792409 10.99723212 -44.94407492 14.59522137 -45.0625 19.6875 C-43.5258353 23.03200552 -41.12558085 24.20445355 -38 26 C-37.68546875 25.10796875 -37.3709375 24.2159375 -37.046875 23.296875 C-36.61890625 22.12640625 -36.1909375 20.9559375 -35.75 19.75 C-35.12351562 18.00976562 -35.12351562 18.00976562 -34.484375 16.234375 C-33.02196811 13.04786735 -31.62933751 11.26976999 -29 9 C-29.33 8.01 -29.66 7.02 -30 6 C-35.17727127 4.63626152 -35.17727127 4.63626152 -39.75 7 Z M3.5 8.9375 C0.37876645 12.7610111 -2.15393711 16.05604992 -3 21 C-2.16122622 25.22945322 -0.73326547 29.06015427 1 33 C1.66 33 2.32 33 3 33 C3.21914063 32.0821875 3.43828125 31.164375 3.6640625 30.21875 C5.41862814 23.42872364 7.10579965 17.83003011 11.828125 12.453125 C13.20925082 11.0516588 13.20925082 11.0516588 13 9 C9.14687984 6.43125322 7.24214961 6.03733405 3.5 8.9375 Z M-27.5 11.4375 C-32.18759533 16.24228521 -34.31928224 22.36300182 -35 29 C-33.02 29.99 -31.04 30.98 -29 32 C-28.69707031 31.27554688 -28.39414062 30.55109375 -28.08203125 29.8046875 C-25.1494143 23.03710992 -22.21058333 18.21058333 -17 13 C-20.61645181 9.90018417 -23.06611168 8.88801421 -27.5 11.4375 Z M11 18 C8.6557258 22.72672877 7 26.68386242 7 32 C10.45925102 31.35901851 13.91722524 30.71139409 17.375 30.0625 C18.35984375 29.88009766 19.3446875 29.69769531 20.359375 29.50976562 C21.77089844 29.24389648 21.77089844 29.24389648 23.2109375 28.97265625 C24.08024902 28.81031494 24.94956055 28.64797363 25.84521484 28.48071289 C28.03462366 28.0834101 28.03462366 28.0834101 30 27 C28.80594237 21.14911761 26.72686443 16.82864791 22 13 C16.54657489 11.66446732 14.25667735 13.71489822 11 18 Z M-18.625 18.375 C-22.79931812 22.98872003 -25.20244493 28.81894818 -26 35 C-24.20884615 36.94690636 -22.80522841 37.96491743 -20.1171875 38.08203125 C-13.90456246 37.49194321 -7.96446371 35.77261632 -2 34 C-3.56735796 27.55216969 -5.00074999 22.5342035 -10 18 C-13.68632324 16.61762879 -15.13144637 16.54504334 -18.625 18.375 Z " fill="#111111" transform="translate(59,17)"/>
</svg>
