<?xml version="1.0" standalone="no"?>
<!DOCTYPE svg PUBLIC "-//W3C//DTD SVG 20010904//EN"
 "http://www.w3.org/TR/2001/REC-SVG-20010904/DTD/svg10.dtd">
<svg version="1.0" xmlns="http://www.w3.org/2000/svg"
 width="100.000000pt" height="98.000000pt" viewBox="0 0 100.000000 98.000000"
 preserveAspectRatio="xMidYMid meet">

<g transform="translate(0.000000,98.000000) scale(0.100000,-0.100000)"
fill="#000000" stroke="none">
<path d="M736 920 c-16 -5 -41 -7 -56 -4 -51 11 -172 -15 -246 -51 -72 -35
-174 -116 -174 -139 0 -6 16 -20 34 -30 19 -10 45 -29 57 -42 20 -21 21 -27 9
-51 -7 -16 -23 -59 -36 -98 l-22 -70 -41 3 c-83 7 -179 -46 -217 -120 -20 -39
-12 -47 40 -36 58 12 116 -3 162 -44 55 -48 67 -81 62 -160 -6 -79 3 -85 64
-43 58 40 93 107 93 182 l0 62 34 6 c18 3 34 5 35 3 1 -2 13 -27 26 -55 13
-29 24 -53 25 -53 2 0 22 7 46 15 79 28 109 76 90 142 -9 31 -7 33 45 73 l54
41 54 -51 c29 -27 58 -50 63 -50 18 0 36 58 35 113 0 29 -9 73 -21 100 -20 47
-20 51 -5 95 9 26 18 84 21 130 6 81 5 84 -22 112 -27 28 -33 30 -104 29 -42
0 -89 -5 -105 -9z m188 -43 c9 -16 4 -25 -37 -62 -29 -25 -44 -45 -38 -49 12
-8 45 7 75 33 18 15 18 14 12 -34 -4 -27 -14 -72 -22 -98 -14 -42 -19 -47 -37
-41 -84 26 -173 106 -205 185 l-21 50 27 10 c48 19 105 27 171 26 50 -2 66 -6
75 -20z m-304 9 c0 -2 -19 -15 -42 -29 -41 -24 -129 -111 -173 -169 l-20 -27
-39 34 -40 35 33 34 c45 46 138 94 214 111 34 7 63 14 65 14 1 1 2 -1 2 -3z
m24 -91 c27 -68 97 -140 171 -176 l65 -32 -16 -27 c-25 -42 -64 -83 -118 -124
-67 -50 -114 -74 -226 -112 -65 -22 -94 -36 -91 -46 9 -34 2 -116 -12 -143 -8
-17 -28 -42 -44 -57 l-28 -27 -1 55 c-3 111 -99 207 -209 208 -30 1 -55 4 -55
8 0 3 16 20 36 36 47 39 110 55 164 43 30 -7 42 -6 45 2 2 7 16 48 30 92 45
138 116 246 204 311 25 18 51 34 56 34 6 0 18 -20 29 -45z m293 -315 c9 -92 1
-100 -51 -50 l-44 43 36 49 c41 59 51 52 59 -42z m-245 -157 c5 -41 -17 -79
-53 -92 -18 -6 -33 -11 -35 -11 -7 0 -34 59 -34 73 0 12 79 54 107 56 6 1 13
-11 15 -26z"/>
<path d="M730 834 c-10 -11 -10 -17 0 -28 15 -19 40 -10 40 14 0 24 -25 33
-40 14z"/>
<path d="M540 535 c-67 -67 -82 -87 -72 -97 10 -10 31 6 102 77 83 82 97 105
67 105 -7 0 -50 -38 -97 -85z"/>
</g>
</svg>
