<?xml version="1.0" standalone="no"?>
<!DOCTYPE svg PUBLIC "-//W3C//DTD SVG 20010904//EN"
 "http://www.w3.org/TR/2001/REC-SVG-20010904/DTD/svg10.dtd">
<svg version="1.0" xmlns="http://www.w3.org/2000/svg"
 width="100.000000pt" height="98.000000pt" viewBox="0 0 100.000000 98.000000"
 preserveAspectRatio="xMidYMid meet">

<g transform="translate(0.000000,98.000000) scale(0.100000,-0.100000)"
fill="#000000" stroke="none">
<path d="M654 908 c-103 -77 -176 -168 -256 -320 -26 -48 -61 -105 -78 -127
l-32 -39 21 -21 c11 -11 23 -37 27 -58 11 -64 13 -64 94 -17 82 48 145 64 250
64 81 0 187 30 229 65 52 45 61 168 17 253 -19 36 -161 199 -185 212 -30 15
-55 12 -87 -12z"/>
<path d="M253 370 c-29 -26 -34 -28 -63 -17 -29 11 -34 10 -56 -16 -13 -15
-24 -38 -24 -50 0 -27 26 -67 44 -67 8 0 16 -14 20 -30 3 -19 15 -34 31 -42
22 -10 30 -8 53 9 15 11 32 36 37 56 6 20 18 44 26 53 15 14 15 22 4 64 -21
81 -25 83 -72 40z m-41 -112 c-6 -7 -15 -29 -20 -48 -9 -31 -10 -32 -11 -9 -1
16 -9 30 -23 37 l-23 11 25 0 c14 1 32 6 40 11 20 13 24 12 12 -2z"/>
</g>
</svg>
