<?xml version="1.0" standalone="no"?>
<!DOCTYPE svg PUBLIC "-//W3C//DTD SVG 20010904//EN"
 "http://www.w3.org/TR/2001/REC-SVG-20010904/DTD/svg10.dtd">
<svg version="1.0" xmlns="http://www.w3.org/2000/svg"
 width="100.000000pt" height="98.000000pt" viewBox="0 0 100.000000 98.000000"
 preserveAspectRatio="xMidYMid meet">

<g transform="translate(0.000000,98.000000) scale(0.100000,-0.100000)"
fill="#000000" stroke="none">
<path d="M290 896 c-74 -16 -133 -49 -187 -102 -187 -187 -102 -513 154 -594
47 -14 73 -30 105 -64 50 -52 109 -73 167 -59 33 9 36 12 33 44 -1 19 -16 53
-33 77 l-30 44 26 20 c25 20 46 54 59 95 6 18 1 23 -30 33 -20 7 -56 10 -80 7
-42 -4 -44 -3 -44 22 0 14 -3 42 -6 62 -6 36 -5 37 32 44 40 7 101 35 146 66
22 16 45 19 152 19 l126 0 0 25 0 25 -106 0 c-67 0 -103 4 -99 10 4 6 68 10
160 10 132 0 154 2 159 16 14 37 -10 44 -161 44 l-144 0 -48 49 c-55 56 -123
94 -199 110 -64 13 -81 13 -152 -3z m219 -80 c52 -27 121 -88 121 -108 0 -19
-75 -83 -126 -108 -71 -35 -198 -35 -269 0 -48 24 -125 91 -125 110 0 31 115
113 185 131 55 15 159 2 214 -25z m-302 -265 c23 -12 49 -21 58 -21 8 0 15 -4
15 -10 0 -16 -106 -41 -162 -38 l-53 3 -3 40 c-2 22 -1 59 3 83 l6 42 47 -39
c26 -21 66 -48 89 -60z m132 -88 c-24 -63 -119 -153 -160 -153 -17 0 -89 82
-89 101 0 5 17 9 38 9 50 0 149 26 187 50 16 10 31 19 32 19 1 1 -2 -11 -8
-26z m11 -156 c-12 -31 -25 -59 -29 -61 -10 -6 -81 15 -81 24 0 4 10 11 23 17
12 6 40 30 62 54 22 24 41 39 43 33 2 -6 -7 -36 -18 -67z m158 21 c-6 -17 -49
-46 -80 -53 -23 -6 -26 -4 -21 14 3 12 15 28 26 36 26 18 80 20 75 3z m-79
-124 c37 -15 79 -59 67 -71 -18 -18 -116 46 -116 76 0 14 2 14 49 -5z"/>
<path d="M477 784 c-14 -15 -6 -43 14 -49 25 -8 42 6 37 31 -3 19 -38 31 -51
18z"/>
</g>
</svg>
