<?xml version="1.0" standalone="no"?>
<!DOCTYPE svg PUBLIC "-//W3C//DTD SVG 20010904//EN"
 "http://www.w3.org/TR/2001/REC-SVG-20010904/DTD/svg10.dtd">
<svg version="1.0" xmlns="http://www.w3.org/2000/svg"
 width="489.000000pt" height="511.000000pt" viewBox="0 0 489.000000 511.000000"
 preserveAspectRatio="xMidYMid meet">

<g transform="translate(0.000000,511.000000) scale(0.100000,-0.100000)"
fill="#000000" stroke="none">
<path d="M2190 4865 c-237 -29 -369 -60 -555 -127 -94 -34 -247 -105 -327
-150 -48 -28 -246 -163 -293 -201 -149 -120 -406 -412 -500 -568 -171 -285
-256 -512 -316 -844 -33 -178 -32 -524 0 -715 34 -198 80 -370 131 -490 17
-41 36 -88 42 -104 34 -92 209 -386 261 -441 7 -7 19 -23 27 -35 40 -59 244
-265 340 -342 80 -65 254 -180 340 -225 185 -98 421 -186 610 -227 294 -64
755 -65 1004 0 101 25 239 66 271 80 152 63 232 100 340 157 68 36 160 104
189 140 28 35 31 46 30 101 0 45 -6 70 -20 89 -25 34 -92 67 -135 67 -34 0
-51 -9 -209 -103 -241 -143 -467 -222 -725 -253 -459 -54 -949 56 -1304 292
-104 70 -115 77 -132 92 -7 7 -34 29 -59 49 -85 69 -261 254 -329 346 -147
198 -258 433 -321 682 -73 286 -73 677 1 952 54 203 151 431 230 545 11 14 19
29 19 33 0 18 177 239 256 321 293 303 696 503 1139 566 174 24 466 9 680 -37
119 -25 285 -83 410 -144 230 -112 362 -206 536 -380 172 -172 277 -317 383
-528 154 -309 224 -764 172 -1122 -46 -316 -182 -650 -361 -886 -49 -65 -65
-100 -65 -145 0 -127 145 -205 246 -132 39 28 160 200 231 326 142 255 210
452 263 760 28 167 28 489 0 666 -28 175 -74 360 -114 460 -8 19 -27 67 -42
105 -71 187 -212 417 -362 594 -102 120 -310 309 -415 379 -22 15 -50 34 -63
42 -206 139 -514 266 -774 320 -208 43 -536 59 -730 35z"/>
<path d="M2125 3742 c-148 -76 -314 -162 -367 -190 -54 -29 -142 -75 -195
-104 -54 -28 -106 -56 -115 -62 -18 -13 -21 -11 107 -91 79 -50 113 -71 217
-139 48 -31 90 -56 92 -56 2 0 45 -27 94 -60 50 -33 93 -60 96 -60 2 0 37 -22
78 -48 40 -27 87 -57 103 -66 17 -9 42 -24 57 -34 34 -22 141 -86 151 -90 4
-2 29 7 55 21 26 13 137 70 247 127 516 265 671 346 696 364 19 13 16 16 -38
47 -68 39 -82 47 -148 84 -27 15 -61 35 -75 44 -37 24 -57 36 -135 81 -38 23
-88 52 -110 65 -22 14 -67 41 -100 60 -33 20 -69 41 -80 48 -145 89 -335 197
-347 197 -7 -1 -134 -63 -283 -138z"/>
<path d="M1300 2580 l0 -610 58 -37 c31 -20 75 -48 97 -61 22 -14 52 -33 67
-44 15 -10 29 -18 31 -18 2 0 55 -31 118 -69 161 -98 436 -264 457 -276 9 -5
56 -34 103 -62 48 -29 92 -53 98 -53 8 0 11 169 11 608 l0 609 -52 33 c-29 18
-64 40 -78 49 -14 8 -34 21 -45 27 -11 6 -137 82 -280 169 -143 87 -273 166
-290 175 -16 10 -77 45 -135 80 -58 34 -117 68 -132 76 l-28 15 0 -611z"/>
<path d="M3515 3070 c-94 -51 -352 -185 -822 -425 l-133 -68 0 -613 c0 -338 1
-614 3 -614 11 0 796 402 902 461 33 19 72 40 88 48 l27 14 0 614 c0 337 -3
612 -7 612 -5 -1 -30 -14 -58 -29z"/>
</g>
</svg>
